<svg width="830" height="156" viewBox="0 0 830 156" fill="none" xmlns="http://www.w3.org/2000/svg">
<path d="M409.618 24.0689C407.164 24.4914 404.933 27.0142 404.014 30.4145C403.282 33.11 403.971 36.2762 405.524 37.3712C406.387 37.9872 407.675 38.1295 408.776 37.7524C409.891 37.3634 411.292 36.2413 412.06 35.1131C414.383 31.6887 414.679 27.5941 412.779 25.2393C411.945 24.2052 410.942 23.8364 409.618 24.0689Z" fill="#F0EDED"/>
<path d="M419.814 32.1996C417.619 32.6028 415.268 34.2924 413.846 36.495C413.187 37.5122 412.886 38.3696 412.71 39.7094C412.561 40.8419 412.573 41.0547 412.861 41.9403C413.412 43.6937 414.221 44.3021 416.221 44.462C417.234 44.5507 417.522 44.5076 418.621 44.1443C419.65 43.7992 420.089 43.5384 421.143 42.6904C422.467 41.6417 423.191 40.7463 424.056 39.0832C424.597 38.0489 424.854 36.2986 424.64 35.1564C424.431 34.0851 423.554 32.8619 422.723 32.5178C421.881 32.158 420.725 32.0346 419.814 32.1996Z" fill="#F0EDED"/>
<path d="M396.103 28.8738C394.661 29.1878 393.183 30.7915 392.302 32.987C391.92 33.9454 391.593 36.122 391.691 37.121C391.884 39.0342 392.986 41.2043 394.115 41.8444C395.268 42.502 396.965 42.1963 398.172 41.1167C399.562 39.8665 400.465 38.0257 400.746 35.885C401.227 32.2249 399.754 29.1856 397.357 28.8704C396.96 28.8136 396.394 28.8169 396.103 28.8738Z" fill="#F0EDED"/>
<path d="M401.332 43.2296C399.468 43.2582 397.157 43.9263 394.773 45.1469C392.116 46.4972 389.552 48.5785 389.014 49.7962C388.184 51.7037 388.689 53.704 390.29 54.8481C391.128 55.4465 392.174 55.8919 394.067 56.4586C396.011 57.0466 397.023 57.4449 397.961 58.0013C399.484 58.9231 400.15 59.6941 401.786 62.4192C402.482 63.5883 403.26 64.7411 403.512 64.9743C404.924 66.3304 406.91 66.6994 408.118 65.8169C409.594 64.7337 410.545 62.0132 410.748 58.2145C410.981 54.0825 410.792 51.9305 409.996 49.3819C409.408 47.4964 408.506 46.157 407.119 45.128C405.585 43.9796 403.182 43.199 401.332 43.2296Z" fill="#F0EDED"/>
<path d="M420.127 46.5281C418.678 46.6864 417.319 47.2798 415.934 48.39C414.217 49.7624 413.447 50.9045 413.142 52.5072C412.872 53.946 412.988 54.7083 413.591 55.6531C413.96 56.2266 414.25 56.4793 414.805 56.7698C417.673 58.2218 421.796 56.6876 423.957 53.3667C424.633 52.3237 424.672 52.2308 424.839 50.9602C424.999 49.7448 424.983 49.5595 424.715 48.8316C424.545 48.3851 424.223 47.8606 423.984 47.6293C423.081 46.8105 421.587 46.3855 420.127 46.5281Z" fill="#F0EDED"/>
<path d="M429.86 93.8203C429.005 93.0024 428.381 92.7142 427.048 92.4926C425.706 92.2596 424.008 92.4642 422.499 93.0412C421.297 93.4918 419.308 94.9746 418.695 95.8771C417.775 97.1959 417.317 98.6848 417.511 99.6875C417.689 100.668 418.457 101.67 419.438 102.24C422.713 104.148 428.367 102.313 430.281 98.7287C431.354 96.7472 431.204 95.1127 429.86 93.8203Z" fill="#F0EDED"/>
<path d="M431.468 107.347C429.36 105.203 425.177 104.486 422.217 105.751C421.076 106.242 419.916 107.209 419.396 108.128C418.826 109.118 418.714 110.417 419.117 111.366C420.412 114.458 424.769 116.005 428.892 114.832C430.755 114.317 432.261 112.92 432.744 111.276C433.08 110.135 432.523 108.41 431.468 107.347Z" fill="#F0EDED"/>
<path d="M417.248 86.7839C415.058 85.0948 410.817 85.9965 408.411 88.6457C407.06 90.1494 406.271 92.2101 406.513 93.6907C406.612 94.2674 406.727 94.5071 407.197 95.0983C407.883 95.9567 408.547 96.3518 409.634 96.5006C411.436 96.7837 413.153 96.3427 414.914 95.1499C416.683 93.9686 417.84 92.4212 418.36 90.5436C418.677 89.3998 418.102 87.4317 417.248 86.7839Z" fill="#F0EDED"/>
<path d="M410.038 99.8703C408.037 97.9545 404.188 96.2171 400.682 95.6281C398.509 95.2608 397.693 95.3387 396.657 96.0078C395.323 96.8649 394.71 98.0571 394.823 99.5651C394.924 100.791 395.283 101.842 396.354 104.006C398.407 108.109 398.57 109.545 397.488 113.912C396.861 116.451 396.804 116.99 396.99 117.981C397.52 120.77 399.515 121.766 402.373 120.664C403.435 120.249 405.268 118.97 406.964 117.466C409.742 115.002 411.058 113.423 412.234 111.16C413.368 108.979 413.55 106.584 412.773 104.201C412.38 103.004 410.959 100.759 410.038 99.8703Z" fill="#F0EDED"/>
<path d="M420.998 116.778C419.359 115.535 417.549 114.881 415.621 114.845C411.917 114.782 409.44 117.279 410.423 120.107C411.224 122.404 413.306 123.984 416.194 124.486C417.386 124.693 417.979 124.696 419.011 124.526C420.28 124.316 420.342 124.287 421.291 123.563C422.794 122.425 423.285 121.272 422.909 119.788C422.683 118.929 421.628 117.267 420.998 116.778Z" fill="#F0EDED"/>
<path d="M513.509 67.9761C512.654 67.1582 512.03 66.87 510.696 66.6484C509.355 66.4154 507.656 66.6199 506.147 67.197C504.946 67.6476 502.957 69.1303 502.343 70.0328C501.424 71.3517 500.965 72.8405 501.159 73.8432C501.337 74.8233 502.105 75.8259 503.086 76.3959C506.361 78.3034 512.016 76.4683 513.929 72.8845C515.003 70.903 514.853 69.2685 513.509 67.9761Z" fill="#F0EDED"/>
<path d="M515.116 81.5032C513.009 79.3589 508.825 78.6422 505.866 79.9065C504.725 80.3976 503.565 81.365 503.044 82.2837C502.474 83.2736 502.362 84.5728 502.765 85.522C504.061 88.6142 508.418 90.1603 512.54 88.9881C514.403 88.4725 515.909 87.0757 516.393 85.4313C516.728 84.2908 516.171 82.5657 515.116 81.5032Z" fill="#F0EDED"/>
<path d="M500.897 60.9397C498.707 59.2506 494.465 60.1523 492.06 62.8015C490.709 64.3051 489.92 66.3659 490.161 67.8465C490.26 68.4232 490.375 68.6629 490.845 69.2541C491.531 70.1125 492.196 70.5076 493.282 70.6564C495.085 70.9395 496.802 70.4984 498.563 69.3057C500.331 68.1243 501.488 66.577 502.009 64.6993C502.326 63.5556 501.75 61.5874 500.897 60.9397Z" fill="#F0EDED"/>
<path d="M493.686 74.026C491.685 72.1102 487.836 70.3729 484.33 69.7839C482.158 69.4166 481.341 69.4945 480.305 70.1636C478.971 71.0207 478.359 72.2129 478.472 73.7209C478.573 74.947 478.931 75.9982 480.002 78.162C482.055 82.2644 482.218 83.7011 481.136 88.0682C480.51 90.6064 480.452 91.1458 480.638 92.137C481.169 94.9262 483.164 95.922 486.021 94.8201C487.084 94.4052 488.916 93.1253 490.612 91.6219C493.391 89.1578 494.707 87.5783 495.883 85.3153C497.017 83.135 497.199 80.7393 496.421 78.3568C496.029 77.1599 494.607 74.9151 493.686 74.026Z" fill="#F0EDED"/>
<path d="M504.646 90.9342C503.007 89.6904 501.197 89.0364 499.269 89.0012C495.565 88.9373 493.088 91.4343 494.072 94.2625C494.872 96.5594 496.955 98.14 499.842 98.6415C501.034 98.8486 501.627 98.8517 502.66 98.6813C503.928 98.472 503.99 98.4429 504.939 97.7185C506.442 96.5809 506.933 95.4274 506.558 93.9436C506.331 93.0851 505.276 91.4233 504.646 90.9342Z" fill="#F0EDED"/>
<path d="M585.232 95.3421C584.706 94.2821 584.217 93.7987 583.039 93.1366C581.857 92.4612 580.19 92.0756 578.575 92.1048C577.291 92.1197 574.916 92.8371 574.032 93.477C572.719 94.4043 571.781 95.6484 571.622 96.6572C571.456 97.6394 571.838 98.8435 572.566 99.7133C574.997 102.621 580.938 102.82 583.957 100.101C585.641 98.6027 586.056 97.0147 585.232 95.3421Z" fill="#F0EDED"/>
<path d="M582.14 108.609C580.888 105.876 577.198 103.778 573.985 103.96C572.745 104.034 571.325 104.549 570.523 105.235C569.65 105.972 569.103 107.156 569.159 108.186C569.325 111.534 572.896 114.47 577.171 114.771C579.098 114.92 580.99 114.119 582.004 112.737C582.708 111.779 582.771 109.967 582.14 108.609Z" fill="#F0EDED"/>
<path d="M575.766 84.4348C574.281 82.1014 569.986 81.5061 566.823 83.1788C565.041 84.133 563.597 85.8023 563.321 87.2768C563.218 87.8528 563.244 88.1173 563.485 88.8332C563.838 89.8738 564.329 90.4713 565.3 90.981C566.898 91.8604 568.663 92.0299 570.725 91.5075C572.79 90.9983 574.404 89.937 575.532 88.3485C576.22 87.3809 576.348 85.3344 575.766 84.4348Z" fill="#F0EDED"/>
<path d="M564.533 94.2869C563.303 91.8045 560.275 88.8611 557.179 87.1143C555.261 86.0298 554.466 85.8251 553.265 86.1018C551.719 86.4539 550.737 87.3667 550.33 88.8231C550.008 90.0104 549.987 91.1208 550.258 93.5198C550.793 98.0762 550.457 99.4825 547.954 103.221C546.501 105.395 546.264 105.882 546.102 106.878C545.651 109.681 547.189 111.296 550.25 111.232C551.39 111.203 553.549 110.624 555.656 109.787C559.107 108.415 560.881 107.378 562.757 105.65C564.566 103.985 565.552 101.795 565.632 99.2898C565.67 98.0307 565.097 95.4362 564.533 94.2869Z" fill="#F0EDED"/>
<path d="M569.086 113.915C567.968 112.188 566.489 110.957 564.688 110.268C561.226 108.948 558.048 110.453 558.01 113.447C557.981 115.879 559.402 118.074 561.946 119.528C562.997 120.129 563.554 120.333 564.582 120.524C565.846 120.759 565.915 120.753 567.053 120.395C568.854 119.836 569.708 118.919 569.86 117.396C569.939 116.511 569.512 114.59 569.086 113.915Z" fill="#F0EDED"/>
<path d="M656.976 105.129C656.292 104.163 655.735 103.761 654.468 103.289C653.196 102.805 651.489 102.682 649.898 102.961C648.632 103.174 646.397 104.251 645.623 105.02C644.469 106.139 643.735 107.513 643.734 108.535C643.723 109.531 644.286 110.661 645.14 111.408C647.991 113.905 653.892 113.181 656.454 110.027C657.885 108.287 658.049 106.653 656.976 105.129Z" fill="#F0EDED"/>
<path d="M655.976 118.714C654.316 116.207 650.345 114.706 647.199 115.384C645.986 115.648 644.662 116.377 643.977 117.179C643.228 118.043 642.871 119.297 643.086 120.305C643.768 123.588 647.751 125.936 652.021 125.571C653.948 125.42 655.693 124.335 656.48 122.813C657.027 121.758 656.809 119.958 655.976 118.714Z" fill="#F0EDED"/>
<path d="M645.936 95.8177C644.108 93.7422 639.773 93.819 636.906 95.9613C635.293 97.1799 634.126 99.0525 634.081 100.552C634.068 101.137 634.135 101.394 634.484 102.064C634.994 103.038 635.571 103.552 636.609 103.905C638.325 104.527 640.094 104.421 642.05 103.586C644.011 102.763 645.442 101.464 646.311 99.7204C646.84 98.658 646.651 96.6163 645.936 95.8177Z" fill="#F0EDED"/>
<path d="M636.364 107.29C634.765 105.028 631.317 102.589 627.988 101.342C625.925 100.568 625.108 100.489 623.964 100.948C622.491 101.535 621.663 102.589 621.486 104.091C621.352 105.314 621.503 106.414 622.142 108.742C623.376 113.161 623.262 114.602 621.368 118.683C620.269 121.055 620.11 121.574 620.103 122.582C620.093 125.421 621.861 126.779 624.876 126.242C625.998 126.037 628.041 125.13 629.993 123.977C633.19 122.088 634.783 120.788 636.368 118.791C637.897 116.866 638.533 114.55 638.223 112.062C638.066 110.813 637.098 108.338 636.364 107.29Z" fill="#F0EDED"/>
<path d="M643.9 125.977C642.529 124.444 640.876 123.457 638.99 123.055C635.366 122.286 632.459 124.266 632.885 127.229C633.233 129.637 634.977 131.585 637.716 132.628C638.847 133.058 639.428 133.174 640.474 133.204C641.759 133.24 641.826 133.223 642.895 132.693C644.587 131.863 645.289 130.824 645.204 129.296C645.145 128.41 644.426 126.578 643.9 125.977Z" fill="#F0EDED"/>
<path d="M722.994 153.891C723.193 152.725 723.082 152.046 722.519 150.817C721.961 149.576 720.841 148.283 719.518 147.356C718.472 146.612 716.129 145.794 715.038 145.791C713.431 145.768 711.94 146.222 711.218 146.943C710.506 147.64 710.105 148.838 710.182 149.97C710.435 153.751 715.121 157.409 719.162 156.988C721.405 156.768 722.675 155.728 722.994 153.891Z" fill="#F0EDED"/>
<path d="M712.685 162.796C713.282 159.85 711.534 155.982 708.829 154.238C707.783 153.567 706.332 153.148 705.28 153.231C704.141 153.313 703.001 153.947 702.441 154.813C700.604 157.617 701.762 162.093 705.041 164.852C706.511 166.107 708.512 166.573 710.145 166.053C711.278 165.693 712.396 164.266 712.685 162.796Z" fill="#F0EDED"/>
<path d="M721.763 139.502C721.936 136.741 718.814 133.732 715.272 133.222C713.27 132.944 711.121 133.444 710.029 134.473C709.607 134.878 709.473 135.108 709.246 135.828C708.919 136.877 708.963 137.649 709.448 138.633C710.223 140.284 711.55 141.46 713.524 142.251C715.493 143.055 717.423 143.148 719.27 142.528C720.395 142.15 721.704 140.572 721.763 139.502Z" fill="#F0EDED"/>
<path d="M706.883 140.854C707.35 138.124 706.634 133.962 705.159 130.727C704.247 128.721 703.726 128.088 702.591 127.604C701.134 126.979 699.803 127.139 698.617 128.077C697.658 128.847 696.987 129.732 695.794 131.831C693.545 135.829 692.445 136.769 688.221 138.317C685.767 139.219 685.288 139.474 684.571 140.183C682.557 142.184 682.849 144.394 685.362 146.145C686.3 146.793 688.387 147.595 690.582 148.159C694.179 149.081 696.225 149.287 698.758 148.994C701.2 148.713 703.287 147.523 704.825 145.545C705.597 144.55 706.661 142.115 706.883 140.854Z" fill="#F0EDED"/>
<path d="M699.009 159.401C699.122 157.347 698.651 155.481 697.6 153.864C695.579 150.759 692.124 150.105 690.331 152.503C688.876 154.452 688.732 157.063 689.933 159.736C690.429 160.84 690.759 161.333 691.478 162.093C692.361 163.027 692.42 163.062 693.552 163.443C695.336 164.051 696.566 163.812 697.586 162.67C698.17 162.002 698.957 160.197 699.009 159.401Z" fill="#F0EDED"/>
<path d="M704.079 69.5754C703.516 68.5348 703.01 68.0691 701.809 67.4494C700.604 66.8165 698.924 66.4905 697.311 66.5772C696.029 66.6377 693.681 67.4393 692.821 68.1103C691.541 69.0838 690.648 70.3604 690.525 71.3742C690.395 72.3617 690.818 73.5515 691.577 74.3948C694.11 77.2145 700.055 77.2011 702.975 74.3765C704.604 72.8194 704.962 71.2176 704.079 69.5754Z" fill="#F0EDED"/>
<path d="M701.462 82.9443C700.114 80.2571 696.351 78.2925 693.147 78.5887C691.91 78.7063 690.509 79.2716 689.732 79.9865C688.886 80.754 688.381 81.9563 688.474 82.9834C688.759 86.3238 692.433 89.1311 696.716 89.279C698.647 89.3594 700.509 88.4916 701.473 87.0746C702.142 86.0918 702.141 84.2791 701.462 82.9443Z" fill="#F0EDED"/>
<path d="M694.231 59.012C692.665 56.7329 688.351 56.2909 685.249 58.0752C683.502 59.0922 682.119 60.8119 681.895 62.2953C681.813 62.8746 681.849 63.138 682.115 63.8448C682.505 64.8722 683.016 65.4519 684.005 65.9266C685.634 66.7486 687.403 66.8552 689.445 66.2597C691.49 65.6774 693.066 64.5592 694.137 62.9316C694.79 61.94 694.845 59.8903 694.231 59.012Z" fill="#F0EDED"/>
<path d="M683.356 69.2577C682.039 66.8206 678.908 63.987 675.751 62.3515C673.796 61.336 672.995 61.1597 671.803 61.4791C670.271 61.8859 669.323 62.8331 668.968 64.3031C668.688 65.501 668.707 66.6115 669.063 68.9994C669.76 73.5338 669.474 74.9512 667.106 78.7764C665.731 81.0004 665.511 81.4961 665.385 82.4967C665.034 85.3141 666.628 86.8736 669.686 86.7007C670.824 86.6315 672.961 85.975 675.036 85.0639C678.436 83.5703 680.173 82.4701 681.986 80.6766C683.734 78.9489 684.642 76.7245 684.632 74.2184C684.625 72.9587 683.96 70.3862 683.356 69.2577Z" fill="#F0EDED"/>
<path d="M688.605 88.7118C687.426 87.0255 685.904 85.8481 684.08 85.2235C680.574 84.0272 677.45 85.6446 677.52 88.6381C677.577 91.0698 679.075 93.2128 681.67 94.5753C682.741 95.1379 683.305 95.3226 684.34 95.477C685.611 95.6666 685.679 95.6579 686.804 95.2592C688.584 94.6372 689.405 93.6897 689.502 92.1623C689.55 91.2757 689.055 89.3705 688.605 88.7118Z" fill="#F0EDED"/>
<path d="M774.035 109.437C773.895 108.262 773.597 107.643 772.709 106.624C771.821 105.591 770.38 104.669 768.849 104.155C767.635 103.739 765.157 103.619 764.109 103.926C762.561 104.359 761.261 105.217 760.773 106.114C760.287 106.984 760.243 108.246 760.637 109.309C761.953 112.864 767.484 115.043 771.239 113.493C773.328 112.646 774.251 111.289 774.035 109.437Z" fill="#F0EDED"/>
<path d="M766.676 120.9C766.412 117.905 763.639 114.692 760.551 113.786C759.358 113.44 757.847 113.449 756.862 113.828C755.792 114.229 754.88 115.161 754.587 116.15C753.621 119.36 756.001 123.324 759.928 125.04C761.694 125.826 763.745 125.706 765.163 124.744C766.148 124.077 766.815 122.391 766.676 120.9Z" fill="#F0EDED"/>
<path d="M768.774 95.9877C768.157 93.2915 764.31 91.2909 760.769 91.8064C758.77 92.108 756.851 93.1969 756.096 94.4934C755.806 95.0015 755.742 95.2596 755.729 96.0148C755.713 97.1135 755.975 97.8408 756.719 98.6466C757.93 100.011 759.536 100.762 761.653 100.961C763.769 101.174 765.646 100.715 767.242 99.5966C768.214 98.9153 769.021 97.0304 768.774 95.9877Z" fill="#F0EDED"/>
<path d="M754.888 101.504C754.562 98.7528 752.696 94.9647 750.364 92.2809C748.921 90.6163 748.241 90.1571 747.016 90.015C745.441 89.8283 744.21 90.3594 743.339 91.5952C742.637 92.6056 742.245 93.6449 741.696 95.9959C740.673 100.468 739.885 101.68 736.274 104.363C734.176 105.924 733.789 106.304 733.302 107.187C731.939 109.678 732.845 111.715 735.752 112.681C736.835 113.036 739.064 113.213 741.328 113.131C745.04 112.996 747.06 112.613 749.406 111.614C751.668 110.652 753.331 108.919 754.246 106.586C754.704 105.412 755.034 102.775 754.888 101.504Z" fill="#F0EDED"/>
<path d="M752.598 121.523C752.124 119.521 751.142 117.866 749.677 116.613C746.858 114.208 743.359 114.561 742.32 117.369C741.477 119.651 742.08 122.195 743.99 124.418C744.778 125.336 745.234 125.715 746.139 126.24C747.251 126.885 747.318 126.902 748.511 126.946C750.394 127.024 751.506 126.445 752.16 125.062C752.531 124.255 752.773 122.301 752.598 121.523Z" fill="#F0EDED"/>
<path d="M824.043 155.51C824.932 152.891 822.705 149.17 819.42 147.752C817.56 146.96 815.354 146.881 814.032 147.589C813.518 147.87 813.329 148.056 812.922 148.692C812.331 149.619 812.173 150.375 812.384 151.452C812.7 153.249 813.673 154.73 815.371 156.01C817.062 157.301 818.9 157.895 820.846 157.779C822.03 157.709 823.706 156.527 824.043 155.51Z" fill="#F0EDED"/>
<path d="M809.327 152.925C810.491 150.411 810.889 146.207 810.311 142.699C809.955 140.525 809.617 139.777 808.648 139.014C807.405 138.029 806.079 137.836 804.689 138.431C803.562 138.923 802.683 139.603 800.983 141.317C797.766 144.588 796.459 145.207 791.977 145.597C789.373 145.827 788.844 145.947 787.966 146.444C785.499 147.849 785.203 150.059 787.171 152.406C787.907 153.276 789.712 154.596 791.683 155.714C794.914 157.545 796.835 158.278 799.357 158.658C801.787 159.025 804.112 158.422 806.115 156.915C807.12 156.156 808.784 154.084 809.327 152.925Z" fill="#F0EDED"/>
<path d="M356.054 63.8233C354.367 63.992 352.886 64.9097 351.669 66.5592C349.581 69.3583 348.972 72.6999 350.071 75.3667C350.628 76.7369 351.231 77.237 352.596 77.5021C353.489 77.6755 353.763 77.6579 354.439 77.4488C357.996 76.3105 360.779 70.9806 359.824 67.1224C359.27 64.9018 357.837 63.6451 356.054 63.8233Z" fill="#F0EDED"/>
<path d="M365.967 72.4285C363.162 72.6211 359.982 74.9954 358.715 77.8404C358.17 79.0676 357.996 79.9696 358.09 81.0373C358.179 82.0614 358.541 82.9258 359.168 83.6005C359.6 84.0674 359.777 84.1442 360.819 84.3893C361.717 84.6063 362.187 84.6407 362.921 84.5566C365.334 84.2738 367.812 82.4863 369.371 79.9105C369.892 79.0474 370.019 78.7175 370.207 77.6622C370.489 76.1571 370.385 75.2153 369.817 74.2116C369.59 73.8129 369.17 73.3485 368.893 73.1528C368.211 72.7085 366.848 72.3586 365.967 72.4285Z" fill="#F0EDED"/>
<path d="M342.202 67.939C340.081 68.3353 338.051 70.9614 337.508 74.004C337.124 76.1558 337.445 78.0898 338.446 79.6315C339.106 80.6529 339.798 81.1135 340.867 81.2077C341.853 81.3141 342.679 81.0209 343.677 80.2221C345.087 79.0921 346.036 77.348 346.425 75.1688C346.804 73.0444 346.523 71.1181 345.622 69.6242C344.934 68.4555 343.409 67.7197 342.202 67.939Z" fill="#F0EDED"/>
<path d="M345.513 82.5785C344.165 82.6713 341.106 83.6085 339.336 84.4702C337.626 85.3009 335.138 87.0723 334.455 87.9323C333.185 89.5717 333.349 92.0003 334.823 93.4069C335.52 94.067 336.606 94.604 339 95.4945C343.28 97.0776 344.151 97.8283 346.23 101.706C347.852 104.716 348.6 105.471 350.309 105.789C353.044 106.292 354.841 103.521 355.406 97.9159C356.231 89.8651 354.819 85.6768 350.585 83.6063C349.149 82.9019 347.038 82.4777 345.513 82.5785Z" fill="#F0EDED"/>
<path d="M365.712 86.8011C363.517 86.7719 361.17 87.9041 359.427 89.8344C358.617 90.7262 358.149 91.6706 357.944 92.8219C357.538 95.097 358.482 96.5848 360.752 97.2528C363.06 97.9421 366.317 96.7315 368.297 94.4643C370.07 92.4406 370.453 90.0619 369.301 88.3774C368.676 87.4621 367.191 86.8049 365.712 86.8011Z" fill="#F0EDED"/>
<path d="M290.209 93.8237C288.57 93.3761 286.877 93.7056 285.189 94.8168C282.306 96.6947 280.632 99.613 280.784 102.512C280.855 103.998 281.257 104.685 282.451 105.424C283.231 105.907 283.495 105.99 284.198 106.036C287.913 106.245 292.284 102.241 292.66 98.2758C292.872 95.9918 291.942 94.2972 290.209 93.8237Z" fill="#F0EDED"/>
<path d="M296.677 105.464C293.981 104.638 290.212 105.724 288.084 107.94C287.167 108.896 286.706 109.68 286.443 110.717C286.189 111.71 286.243 112.652 286.609 113.511C286.861 114.104 287.001 114.24 287.899 114.845C288.671 115.371 289.1 115.572 289.818 115.757C292.177 116.358 295.092 115.57 297.406 113.712C298.179 113.089 298.407 112.825 298.932 111.902C299.693 110.59 299.906 109.668 299.704 108.522C299.622 108.066 299.381 107.479 299.186 107.196C298.693 106.534 297.528 105.716 296.677 105.464Z" fill="#F0EDED"/>
<path d="M275.846 92.7115C273.724 92.3214 270.952 94.0577 269.439 96.7193C268.369 98.6017 268.032 100.533 268.464 102.34C268.746 103.536 269.244 104.217 270.217 104.69C271.107 105.144 271.98 105.165 273.18 104.774C274.877 104.22 276.343 102.923 277.427 101.017C278.483 99.1587 278.855 97.249 278.501 95.5226C278.241 94.1782 277.052 92.9392 275.846 92.7115Z" fill="#F0EDED"/>
<path d="M274.13 107.646C272.835 107.249 269.652 107.03 267.706 107.203C265.827 107.369 262.905 108.138 261.98 108.7C260.247 109.783 259.6 112.122 260.519 113.972C260.956 114.842 261.798 115.736 263.753 117.432C267.249 120.455 267.82 121.472 268.492 125.86C269.022 129.268 269.475 130.245 270.975 131.157C273.377 132.611 275.979 130.656 278.359 125.597C281.79 118.336 281.846 113.897 278.554 110.432C277.438 109.255 275.596 108.099 274.13 107.646Z" fill="#F0EDED"/>
<path d="M291.698 118.868C289.647 118.052 287.07 118.271 284.797 119.457C283.741 120.003 282.991 120.722 282.419 121.729C281.287 123.719 281.682 125.455 283.594 126.898C285.533 128.375 288.99 128.408 291.597 126.991C293.929 125.728 295.074 123.633 294.547 121.637C294.263 120.553 293.085 119.403 291.698 118.868Z" fill="#F0EDED"/>
<path d="M221.752 119.068C220.473 117.909 218.815 117.421 216.831 117.636C213.449 117.986 210.708 119.827 209.614 122.496C209.046 123.862 209.115 124.663 209.871 125.878C210.366 126.672 210.567 126.868 211.178 127.235C214.419 129.141 220.038 127.574 222.059 124.193C223.219 122.244 223.105 120.294 221.752 119.068Z" fill="#F0EDED"/>
<path d="M222.607 132.496C220.541 130.507 216.701 129.738 213.852 130.739C212.625 131.173 211.878 131.662 211.202 132.47C210.553 133.242 210.202 134.112 210.165 135.051C210.139 135.7 210.207 135.886 210.755 136.843C211.223 137.672 211.523 138.051 212.087 138.549C213.946 140.179 216.895 140.822 219.758 140.226C220.716 140.025 221.032 139.894 221.895 139.309C223.134 138.485 223.717 137.758 224.022 136.637C224.142 136.19 224.176 135.553 224.12 135.208C223.959 134.387 223.263 133.114 222.607 132.496Z" fill="#F0EDED"/>
<path d="M209.35 111.427C207.613 110.096 204.391 110.37 201.904 112.056C200.146 113.248 199.024 114.823 198.643 116.643C198.388 117.846 198.545 118.686 199.217 119.56C199.822 120.379 200.595 120.802 201.837 121.007C203.593 121.295 205.459 120.811 207.239 119.603C208.976 118.426 210.12 116.886 210.536 115.175C210.874 113.85 210.334 112.189 209.35 111.427Z" fill="#F0EDED"/>
<path d="M201.469 124.021C200.476 123.065 197.717 121.397 195.899 120.652C194.143 119.931 191.198 119.269 190.13 119.345C188.116 119.514 186.543 121.311 186.582 123.395C186.604 124.376 186.979 125.568 188.011 127.992C189.862 132.32 189.941 133.495 188.68 137.739C187.708 141.039 187.699 142.125 188.656 143.636C190.192 146.051 193.355 145.502 197.637 142.068C203.796 137.147 205.732 133.193 204.251 128.565C203.751 126.993 202.591 125.105 201.469 124.021Z" fill="#F0EDED"/>
<path d="M212.452 142.206C210.96 140.526 208.556 139.531 206.015 139.542C204.837 139.544 203.859 139.841 202.919 140.479C201.059 141.74 200.676 143.478 201.777 145.656C202.888 147.877 205.973 149.506 208.911 149.442C211.538 149.388 213.454 148.039 213.83 146.007C214.035 144.904 213.468 143.328 212.452 142.206Z" fill="#F0EDED"/>
<path d="M128.727 99.7399C127.034 99.6872 125.454 100.405 124.049 101.882C121.642 104.387 120.638 107.623 121.409 110.412C121.797 111.844 122.336 112.419 123.659 112.86C124.523 113.149 124.798 113.167 125.493 113.048C129.158 112.382 132.558 107.457 132.073 103.505C131.789 101.229 130.518 99.7957 128.727 99.7399Z" fill="#F0EDED"/>
<path d="M137.532 109.571C134.726 109.396 131.287 111.337 129.689 113.994C129.001 115.141 128.72 116.013 128.686 117.085C128.652 118.112 128.907 119.017 129.448 119.768C129.822 120.288 129.987 120.387 130.992 120.766C131.858 121.099 132.319 121.194 133.058 121.207C135.486 121.241 138.158 119.79 140.014 117.438C140.634 116.65 140.799 116.339 141.112 115.317C141.572 113.86 141.582 112.912 141.139 111.842C140.961 111.417 140.6 110.901 140.348 110.671C139.725 110.142 138.415 109.617 137.532 109.571Z" fill="#F0EDED"/>
<path d="M114.491 102.017C112.339 102.133 110.011 104.474 109.108 107.422C108.469 109.507 108.556 111.467 109.365 113.127C109.897 114.227 110.528 114.774 111.578 115.007C112.543 115.241 113.398 115.058 114.484 114.396C116.018 113.459 117.169 111.852 117.816 109.74C118.446 107.682 118.398 105.734 117.682 104.135C117.14 102.885 115.715 101.956 114.491 102.017Z" fill="#F0EDED"/>
<path d="M116.023 116.973C114.675 116.89 111.527 117.42 109.668 118.044C107.872 118.646 105.191 120.079 104.41 120.843C102.954 122.304 102.826 124.735 104.12 126.322C104.733 127.068 105.746 127.743 108.014 128.938C112.071 131.067 112.846 131.926 114.444 136.045C115.693 139.242 116.345 140.089 118.002 140.627C120.655 141.483 122.77 138.968 124.002 133.481C125.784 125.601 124.885 121.261 120.932 118.655C119.591 117.768 117.548 117.072 116.023 116.973Z" fill="#F0EDED"/>
<path d="M135.558 123.797C133.384 123.482 130.92 124.299 128.96 125.987C128.048 126.766 127.472 127.642 127.13 128.758C126.455 130.962 127.213 132.561 129.386 133.52C131.593 134.505 134.97 133.729 137.205 131.738C139.206 129.961 139.872 127.651 138.93 125.829C138.42 124.84 137.025 123.994 135.558 123.797Z" fill="#F0EDED"/>
<path d="M28.0252 130.597C26.3316 130.544 24.7526 131.262 23.3471 132.739C20.9405 135.244 19.9356 138.48 20.7072 141.269C21.0956 142.701 21.6343 143.276 22.9567 143.717C23.8214 144.006 24.0961 144.024 24.7913 143.905C28.4566 143.239 31.8566 138.314 31.371 134.362C31.0868 132.086 29.816 130.653 28.0252 130.597Z" fill="#F0EDED"/>
<path d="M36.8301 140.427C34.0246 140.252 30.5854 142.193 28.9869 144.85C28.2995 145.997 28.0185 146.869 27.9846 147.941C27.9502 148.968 28.2058 149.873 28.7465 150.624C29.12 151.144 29.2858 151.243 30.2908 151.622C31.156 151.955 31.6173 152.05 32.3563 152.063C34.7844 152.097 37.4567 150.646 39.3121 148.294C39.9319 147.506 40.0972 147.195 40.4102 146.173C40.8702 144.716 40.8802 143.768 40.437 142.698C40.2589 142.273 39.8982 141.758 39.6464 141.527C39.0238 140.998 37.713 140.473 36.8301 140.427Z" fill="#F0EDED"/>
<path d="M13.7891 132.874C11.6372 132.99 9.30872 135.331 8.40595 138.279C7.76751 140.364 7.85381 142.324 8.66278 143.984C9.19498 145.084 9.82625 145.631 10.8761 145.864C11.8414 146.098 12.6964 145.915 13.7821 145.253C15.3164 144.315 16.4671 142.709 17.1137 140.597C17.744 138.539 17.6959 136.591 16.9805 134.992C16.4381 133.742 15.0128 132.813 13.7891 132.874Z" fill="#F0EDED"/>
<path d="M15.3207 147.83C13.9729 147.747 10.8251 148.277 8.96617 148.901C7.17033 149.503 4.48914 150.936 3.70856 151.7C2.25215 153.161 2.12448 155.592 3.41824 157.179C4.03078 157.925 5.0436 158.6 7.31233 159.795C11.3696 161.924 12.1439 162.783 13.7418 166.902C14.9912 170.099 15.6429 170.946 17.3001 171.484C19.9533 172.34 22.0687 169.825 23.3004 164.338C25.0826 156.458 24.1829 152.118 20.2299 149.512C18.8894 148.625 16.8461 147.929 15.3207 147.83Z" fill="#F0EDED"/>
<path d="M34.8564 154.654C32.6826 154.339 30.2181 155.156 28.2579 156.844C27.3466 157.623 26.7701 158.499 26.4285 159.615C25.7535 161.819 26.5112 163.418 28.6841 164.377C30.8911 165.362 34.268 164.586 36.5034 162.595C38.5048 160.818 39.1701 158.508 38.2283 156.686C37.7185 155.697 36.3238 154.851 34.8564 154.654Z" fill="#F0EDED"/>
<path d="M368.231 134.422C366.959 133.399 365.434 133.02 363.4 133.22C359.849 133.573 357.015 135.606 356.142 138.425C356.006 138.867 355.951 139.503 355.994 139.849C356.559 143.573 362.089 144.744 366.459 142.076C368.059 141.092 368.914 140.086 369.476 138.516C369.968 137.121 369.447 135.4 368.231 134.422Z" fill="#F0EDED"/>
<path d="M356.748 126.951C356.17 126.323 355.716 126.103 354.665 125.899C352.817 125.528 350.875 125.915 349.099 127.025C347.35 128.102 346.208 129.531 345.699 131.247C345.329 132.501 345.395 133.24 345.93 134.172C347.888 137.528 354.311 136.321 356.838 132.125C357.111 131.679 357.43 131.041 357.542 130.694C357.946 129.581 357.579 127.829 356.748 126.951Z" fill="#F0EDED"/>
<path d="M368.612 147.861C367.227 146.696 365.263 145.959 363.247 145.839C358.687 145.572 355.345 148.864 356.891 152.072C358.268 154.931 362.105 156.543 365.926 155.875C368.599 155.405 370.582 153.353 370.476 151.162C370.431 150.378 369.365 148.494 368.612 147.861Z" fill="#F0EDED"/>
<path d="M348.836 139.719C347.609 138.26 345.761 136.914 343.274 135.675C341.57 134.824 337.942 133.795 336.918 133.883C336.084 133.949 334.812 134.582 334.305 135.191C332.95 136.817 333.034 138.454 334.628 142.477C336.281 146.657 336.337 148.002 334.948 152.2C334.119 154.716 334.016 155.187 334.1 156.255C334.186 157.354 334.911 158.752 335.633 159.195C337.716 160.491 341.195 159.145 345.784 155.285C348.709 152.84 350.324 150.58 350.939 148.1C351.3 146.64 351.274 145.13 350.84 143.614C350.57 142.63 349.438 140.414 348.836 139.719Z" fill="#F0EDED"/>
<path d="M358.093 157.07C356.633 155.612 354.369 154.705 352.035 154.654C349.743 154.594 347.604 156.077 347.246 157.974C346.898 159.865 348.447 162.372 350.782 163.673C352.442 164.584 355.013 164.941 356.651 164.485C358.883 163.87 360.208 162.001 359.772 160.049C359.574 159.133 358.812 157.807 358.093 157.07Z" fill="#F0EDED"/>
<path d="M474.359 12.1309C473.25 11.7748 472.568 11.7938 471.272 12.1904C469.965 12.5803 468.515 13.5252 467.388 14.722C466.488 15.667 465.3 17.8967 465.117 18.9866C464.828 20.5896 465.026 22.1398 465.613 22.9589C466.177 23.7644 467.282 24.3263 468.403 24.4022C472.145 24.6595 476.499 20.4708 476.756 16.3767C476.911 14.1063 476.104 12.6969 474.359 12.1309Z" fill="#F0EDED"/>
<path d="M481.369 23.6314C478.584 22.6376 474.51 23.8627 472.356 26.3294C471.527 27.2838 470.876 28.677 470.784 29.7397C470.676 30.8892 471.108 32.1131 471.862 32.79C474.303 35.0037 478.875 34.4501 482.117 31.5461C483.588 30.2465 484.375 28.3105 484.136 26.6087C483.97 25.4281 482.758 24.1189 481.369 23.6314Z" fill="#F0EDED"/>
<path d="M460.074 11.4195C457.402 10.8738 453.94 13.5868 452.856 17.0568C452.253 19.0198 452.387 21.2348 453.214 22.4641C453.54 22.9407 453.742 23.1059 454.41 23.4295C455.382 23.8979 456.145 23.9575 457.188 23.6055C458.932 23.0546 460.302 21.8876 461.403 20.022C462.515 18.1632 462.925 16.2475 462.623 14.3182C462.44 13.143 461.111 11.6226 460.074 11.4195Z" fill="#F0EDED"/>
<path d="M458.937 26.469C456.342 25.6339 452.151 25.7872 448.742 26.8245C446.629 27.4649 445.923 27.9009 445.262 28.969C444.409 30.3404 444.346 31.6915 445.067 33.0032C445.662 34.0658 446.418 34.855 448.274 36.3304C451.815 39.1175 452.552 40.3426 453.369 44.7719C453.846 47.3453 454.016 47.8584 454.591 48.6706C456.217 50.9528 458.428 50.9594 460.557 48.685C461.346 47.8348 462.475 45.8583 463.39 43.741C464.887 40.2712 465.427 38.2555 465.56 35.6847C465.688 33.2074 464.868 30.9616 463.187 29.1572C462.341 28.2516 460.134 26.8601 458.937 26.469Z" fill="#F0EDED"/>
<path d="M475.786 36.8375C473.794 36.4476 471.89 36.6668 470.134 37.498C466.762 39.0982 465.55 42.4625 467.6 44.5774C469.267 46.2941 471.798 46.7897 474.613 45.9504C475.775 45.6038 476.312 45.3412 477.174 44.7252C478.234 43.9684 478.278 43.9143 478.838 42.8353C479.728 41.1348 479.698 39.873 478.749 38.7005C478.192 38.0263 476.556 36.9973 475.786 36.8375Z" fill="#F0EDED"/>
<path d="M550.735 17.7C549.962 16.8289 549.366 16.4977 548.049 16.179C546.725 15.8485 544.996 15.9229 543.417 16.3791C542.161 16.7336 540.003 18.0473 539.29 18.8918C538.225 20.1241 537.605 21.5587 537.693 22.5626C537.768 23.543 538.433 24.5898 539.359 25.2258C542.448 27.3537 548.328 25.9672 550.635 22.5747C551.925 20.7001 551.948 19.0761 550.735 17.7Z" fill="#F0EDED"/>
<path d="M550.909 31.1677C549.018 28.8938 544.889 27.8729 541.779 28.8983C540.579 29.2973 539.31 30.1648 538.689 31.0321C538.01 31.9661 537.759 33.2397 538.063 34.2065C539.036 37.3547 543.252 39.207 547.521 38.3597C549.449 37.9907 551.112 36.7255 551.773 35.1393C552.232 34.0392 551.857 32.2952 550.909 31.1677Z" fill="#F0EDED"/>
<path d="M538.805 9.81146C536.783 7.98055 532.423 8.55204 529.722 10.9855C528.203 12.3678 527.19 14.3419 527.275 15.8209C527.314 16.3974 527.403 16.6425 527.813 17.2611C528.411 18.1596 529.037 18.5993 530.114 18.8276C531.895 19.2421 533.669 18.9357 535.566 17.891C537.47 16.858 538.799 15.4181 539.522 13.6045C539.963 12.4997 539.594 10.5147 538.805 9.81146Z" fill="#F0EDED"/>
<path d="M530.16 22.183C528.353 20.1425 524.668 18.1396 521.206 17.2954C519.061 16.77 518.232 16.7856 517.119 17.3681C515.686 18.1137 514.944 19.2442 514.897 20.7406C514.867 21.9579 515.115 23.022 515.961 25.2374C517.588 29.4393 517.599 30.8691 516.045 35.0969C515.145 37.5544 515.03 38.0823 515.111 39.0743C515.347 41.8662 517.247 42.9984 520.237 42.1255C521.349 41.7958 523.328 40.6704 525.194 39.3142C528.25 37.0913 529.741 35.6316 531.164 33.4869C532.537 31.4206 532.976 29.0705 532.448 26.6613C532.181 25.4509 530.991 23.1293 530.16 22.183Z" fill="#F0EDED"/>
<path d="M539.377 39.6882C537.862 38.338 536.112 37.5569 534.177 37.3775C530.46 37.0366 527.703 39.3145 528.391 42.1788C528.95 44.5052 530.876 46.221 533.725 46.9325C534.902 47.2262 535.498 47.2738 536.554 47.1831C537.851 47.0718 537.917 47.0477 538.948 46.4042C540.581 45.3945 541.197 44.2931 540.978 42.8009C540.842 41.9369 539.958 40.218 539.377 39.6882Z" fill="#F0EDED"/>
<path d="M628.311 42.9643C627.795 41.9206 627.306 41.4441 626.12 40.7901C624.93 40.1231 623.242 39.7399 621.598 39.7646C620.293 39.7761 617.866 40.4759 616.956 41.103C615.604 42.0118 614.629 43.2329 614.449 44.2245C614.264 45.19 614.63 46.375 615.356 47.2321C617.776 50.0977 623.815 50.3071 626.932 47.6408C628.67 46.1717 629.12 44.6111 628.311 42.9643Z" fill="#F0EDED"/>
<path d="M624.936 56.0031C623.71 53.312 619.995 51.2405 616.725 51.4117C615.462 51.481 614.009 51.984 613.182 52.6574C612.282 53.3799 611.704 54.5425 611.743 55.5553C611.853 58.8485 615.433 61.7447 619.775 62.0503C621.732 62.2016 623.67 61.4186 624.725 60.0622C625.458 59.1215 625.554 57.3401 624.936 56.0031Z" fill="#F0EDED"/>
<path d="M618.877 32.2152C617.408 29.9169 613.051 29.3211 609.805 30.9583C607.976 31.8924 606.479 33.5304 606.172 34.9797C606.057 35.5459 606.08 35.8061 606.312 36.5107C606.653 37.5348 607.141 38.1236 608.12 38.6272C609.73 39.4958 611.521 39.6668 613.627 39.1581C615.735 38.6624 617.395 37.6226 618.571 36.0633C619.287 35.1133 619.453 33.1012 618.877 32.2152Z" fill="#F0EDED"/>
<path d="M607.282 41.8762C606.075 39.4321 603.047 36.5304 599.929 34.8051C597.998 33.734 597.193 33.5308 595.967 33.8C594.388 34.1425 593.375 35.0378 592.935 36.469C592.587 37.6358 592.546 38.7277 592.78 41.0876C593.244 45.5695 592.878 46.9517 590.267 50.6219C588.752 52.756 588.502 53.2349 588.319 54.2134C587.812 56.969 589.347 58.5611 592.462 58.5056C593.621 58.4802 595.827 57.915 597.983 57.0974C601.517 55.7568 603.339 54.7407 605.277 53.0461C607.145 51.4137 608.186 49.2618 608.311 46.7987C608.372 45.5607 607.834 43.0078 607.282 41.8762Z" fill="#F0EDED"/>
<path d="M611.569 61.1893C610.462 59.4881 608.979 58.2742 607.16 57.5921C603.663 56.2853 600.405 57.7578 600.314 60.702C600.242 63.0937 601.649 65.2557 604.21 66.6917C605.268 67.2846 605.831 67.4872 606.873 67.6776C608.155 67.9116 608.224 67.9056 609.388 67.556C611.229 67.0113 612.113 66.111 612.295 64.6137C612.391 63.7443 611.99 61.8535 611.569 61.1893Z" fill="#F0EDED"/>
<path d="M83.8202 156.453C83.1736 155.901 82.6984 155.739 81.6316 155.667C79.7543 155.529 77.8698 156.154 76.2333 157.477C74.6202 158.764 73.6497 160.325 73.3393 162.092C73.1154 163.383 73.265 164.108 73.9028 164.967C76.2298 168.056 82.4694 166.059 84.4999 161.579C84.7198 161.101 84.9636 160.428 85.0358 160.07C85.3098 158.914 84.7451 157.221 83.8202 156.453Z" fill="#F0EDED"/>
</svg>
